<svg id="图层_1" data-name="图层 1" xmlns="http://www.w3.org/2000/svg" xmlns:xlink="http://www.w3.org/1999/xlink" viewBox="0 0 183.42 183.96"><defs><style>.cls-1{fill:none;}.cls-2{fill:#00427e;}.cls-3{fill:#9ddcf9;opacity:0.4;}.cls-4{font-size:72px;stroke:#000;stroke-miterlimit:10;stroke-width:0.75px;font-family:CurlzMT, Curlz MT;letter-spacing:0.07em;fill:url(#摇摆);}</style><pattern id="摇摆" data-name="摇摆" width="108.34" height="109.64" patternUnits="userSpaceOnUse" viewBox="0 0 108.34 109.64"><rect class="cls-1" width="108.34" height="109.64"/><path class="cls-2" d="M87.47,144.34a.27.27,0,0,1,.25-.21c12.91-.14,24.75-3.27,34-11.52-8,5.56-22.94,7.51-31.52,3.62a.25.25,0,0,1,.11-.48c10.68.29,19.28-3,26-9-6.87-.42-12.57-4.74-12.55-9.84a.26.26,0,0,1,.2-.25.27.27,0,0,1,.28.14c1.12,2.49,4.75,3.79,8.58,2.88,4.18-1,7-4.18,6.3-7.16-.47-2-2.43-3.4-4.95-3.79a.26.26,0,0,1-.22-.26.27.27,0,0,1,.23-.24,17.53,17.53,0,0,1,3.32,0c6.49.62,11.52,4.6,12,9.18,4.71-.55,8.89-3.16,10.38-6.77a.25.25,0,0,1,.27-.16.26.26,0,0,1,.22.23c.37,4.75-1.26,7.84-5,10.86a21.8,21.8,0,0,1,17.25.53.26.26,0,0,1,.15.28.28.28,0,0,1-.24.21,16.26,16.26,0,0,0-11.74,5.07c18.26-5.13,33.09,6.2,28,23.05a.26.26,0,0,1-.27.18.26.26,0,0,1-.23-.23c-.91-9.71-7.7-16.11-17.86-17.07a17.45,17.45,0,0,1,11.56,15.53.25.25,0,0,1-.19.26.27.27,0,0,1-.3-.14,16.74,16.74,0,0,0-14.16-9.81c6.34,2.58,10.4,8.6,11.57,16.42a.25.25,0,0,1-.17.28.25.25,0,0,1-.3-.13c-3.87-7.58-12.16-12.79-22.45-8.81-10.62,4.11-15.27,16.39-16.3,25a.26.26,0,0,1-.24.22.25.25,0,0,1-.26-.19c-3.72-15.69,3.58-31.95,16.64-38.84-7.1,2-13.44,6.26-17,13.35-8.3,1-14,3.87-16.86,9.24a.25.25,0,0,1-.29.13.27.27,0,0,1-.19-.27c.19-2.11.94-6.33,4.08-8.27-7,0-12.51-.89-17.8-3A.26.26,0,0,1,87.47,144.34ZM117,197.81a.24.24,0,0,0-.31,0,.25.25,0,0,0-.05.31c1.62,2.8.14,6.82-3,6.82-5.72,0-8.47-10.77-7.6-20.59,2.17,5.75,4,8,7.35,10.79a.24.24,0,0,0,.32,0,.25.25,0,0,0,.07-.31,46.53,46.53,0,0,1-5.9-24.09c1.46,6,3.19,9.32,8.13,14.38a.24.24,0,0,0,.32,0,.25.25,0,0,0,.09-.31,44.24,44.24,0,0,1-1-34.27.25.25,0,0,0-.06-.28.26.26,0,0,0-.29,0c-5.2,2.55-8.26,4.23-12.75,10.39,1.36,7.4.23,11.05-3.17,17.2,3.94-9.92,1.84-23.9-8.19-29.6a.25.25,0,0,0-.32.07.26.26,0,0,0,0,.33,17.92,17.92,0,0,1,4.16,17.93c1.53-10.39-7.6-19.12-17.78-19.12-9.6,0-16.15,7.51-15.61,14.94s5.44,11,9.67,12.5a.25.25,0,0,0,.3-.1.26.26,0,0,0,0-.32c-5.61-5.69-6.38-16.49,3.58-19.76-5.86,5.06-3.69,16.83,5.69,17.73a.26.26,0,0,0,.27-.17.27.27,0,0,0-.11-.3,8,8,0,0,1-3.68-6.57c0-4.68,3.43-6.51,5.68-6.51,3.42,0,6.26,3.25,6.26,8.18,0,5.84-5.26,10.68-12,11.43s-12.78-2.15-15.75-6.46a.25.25,0,0,0-.31-.08.24.24,0,0,0-.14.29,17.14,17.14,0,0,0,26.88,9.51c-6.61,7.5-17,7.6-25.72-.09a.26.26,0,0,0-.32,0,.24.24,0,0,0-.07.31c2.66,5.41,9.25,11.82,18.6,10.89,8.56-.86,13.52-9,14.53-15.69.55,8.52-1.4,14.53-8.76,20.14a.25.25,0,0,0-.07.32.26.26,0,0,0,.3.13c6.78-2,12.23-5.43,15-12.55,0,6.17-2.14,12.38-7.53,16.52a.24.24,0,0,0-.07.31.25.25,0,0,0,.29.13c3.46-1,6.17-2.49,8.14-5.18,1.31,11.1,6.52,17.69,12.53,17.69,4.12,0,7.2-3,7.2-7.87A11.36,11.36,0,0,0,117,197.81Zm99.23-91.62c-3.17-3.91-9.54-5.4-16.44-4a22.71,22.71,0,0,0-1.61-11.49.25.25,0,0,0-.48.12c.37,8.77-4.62,15.85-13.45,18.91,6.91-4.75,8.93-14.19,5.64-19.06a.25.25,0,0,0-.31-.09.25.25,0,0,0-.15.28c.37,2.06-.61,4.68-2.72,6.72-2.9,2.82-6.84,3.45-8.81,1.43s-1.19-6,1.71-8.76A9.58,9.58,0,0,1,183,88.08a.28.28,0,0,0,.17-.28.26.26,0,0,0-.23-.22c-6.39-.55-10.77,3.25-13.52,7.88s-7.57,8.41-13.21,7.67a.26.26,0,0,0-.27.17.24.24,0,0,0,.11.3,11,11,0,0,0,9.86,1.05c-5.79,4.91-14.05,7.74-21.84,5.23a.25.25,0,0,0-.29.1.26.26,0,0,0,0,.31c5.9,6.57,17.69,6.7,25.11,1.37-3,4.32-7.07,7.49-14.3,8.48a.28.28,0,0,0-.22.23.26.26,0,0,0,.17.26c8.29,3.08,16.6,0,23.44-8.21a26.35,26.35,0,0,1-14.76,14,.25.25,0,0,0-.17.28.26.26,0,0,0,.25.21c3.94.08,7.48-.86,12.26-3.57C172.1,129,172.87,139,178,145.61a.27.27,0,0,0,.3.08.26.26,0,0,0,.15-.28c-1.18-7.2,1.3-15.33,5.61-19.64a18.18,18.18,0,0,0,5.9,19.64.26.26,0,0,0,.25.05.28.28,0,0,0,.17-.21c1.23-9.41,11.77-19,20.6-19.77a.25.25,0,0,0,0-.5,20.83,20.83,0,0,0-12.39,1,21.87,21.87,0,0,1,9.56-6.25.25.25,0,0,0-.06-.49,20.37,20.37,0,0,0-12.73,3.54A31.44,31.44,0,0,1,214.8,109.3.25.25,0,0,0,215,109a.24.24,0,0,0-.22-.24c-11.92-1.3-21.75,3.32-28.22,11.92,1.64-4.9,6.36-9.76,12.94-12.62,5.85-2.55,11.85-2.95,16.42-1.51a.27.27,0,0,0,.29-.1A.26.26,0,0,0,216.19,106.19Zm-52.91,75.57c4.81-10.49,4.47-18.69.6-29a.26.26,0,0,0-.5.1c.63,12.62-2.82,21.65-10.29,27.8,8.25-9.85,4.35-29.56-8.83-29.56-9.58,0-17.51,8-19.45,17.53a.25.25,0,0,0,.16.29.26.26,0,0,0,.31-.11c2.84-4.76,7.4-7.85,12.45-7.85,8.14,0,10.54,6.46,10.54,11,0,6.18-4.92,11.34-8.7,11.34a4.93,4.93,0,0,1-5-4.93,8.86,8.86,0,0,1,6.37-8.16.26.26,0,0,0,.18-.28.25.25,0,0,0-.25-.22,10.47,10.47,0,0,0-9.63,5.57,17.4,17.4,0,0,1,.64-7.72.25.25,0,0,0-.12-.3.25.25,0,0,0-.32.07c-7.36,9.39-3.84,25.62,2,32.35-5.53-4-10.42-12.63-10.34-24.39a.25.25,0,0,0-.21-.25.24.24,0,0,0-.28.15c-4.11,10.26-1.93,29.25,9.28,39.86a20.19,20.19,0,0,1-9.12-.7.27.27,0,0,0-.3.12.25.25,0,0,0,.06.32c4.09,3.46,9.81,4.54,15.26,4.54-4.69-5.5-3.13-16.55,4.36-16.55,5.35,0,7.77,8.3,3.64,12.78a.27.27,0,0,0,0,.31.25.25,0,0,0,.3.1c4.78-1.65,9.94-5.79,9.94-11,0-5-4.81-9.39-11.8-9.05,8.82-2.5,18,.27,22.88,6.26a.25.25,0,0,0,.31.06.24.24,0,0,0,.13-.29c-2.79-10.71-12-15.2-23.43-13.7,9.28-3.76,23.25-.48,29.42,7.31a.25.25,0,0,0,.3.07.26.26,0,0,0,.15-.28C172.53,188.66,169,183.71,163.28,181.76Z"/><path class="cls-3" d="M189.67,162.47a.27.27,0,0,1-.25.21c-12.91.14-24.75,3.27-34,11.52,8-5.56,22.94-7.51,31.53-3.62a.28.28,0,0,1,.14.29.27.27,0,0,1-.26.19c-10.68-.29-19.28,3-26,9,6.87.42,12.57,4.74,12.55,9.84a.26.26,0,0,1-.2.25A.26.26,0,0,1,173,190c-1.12-2.48-4.75-3.78-8.58-2.88-4.18,1-7,4.19-6.3,7.17.47,2,2.43,3.4,5,3.79a.26.26,0,0,1,.22.25.27.27,0,0,1-.23.25,17.53,17.53,0,0,1-3.32,0c-6.49-.62-11.51-4.6-11.95-9.18-4.71.55-8.88,3.16-10.38,6.77a.25.25,0,0,1-.49-.07c-.37-4.75,1.26-7.84,5-10.86a21.8,21.8,0,0,1-17.25-.53.26.26,0,0,1,.1-.49,16.26,16.26,0,0,0,11.73-5.07c-18.26,5.13-33.09-6.2-28-23.05a.26.26,0,0,1,.27-.18.26.26,0,0,1,.23.23c.91,9.71,7.7,16.11,17.86,17.07a17.45,17.45,0,0,1-11.56-15.53.25.25,0,0,1,.19-.26.26.26,0,0,1,.3.14,16.74,16.74,0,0,0,14.16,9.81c-6.34-2.58-10.4-8.6-11.57-16.42a.25.25,0,0,1,.17-.28.25.25,0,0,1,.3.13c3.87,7.58,12.16,12.79,22.45,8.81,10.62-4.11,15.27-16.39,16.3-25a.28.28,0,0,1,.24-.23.27.27,0,0,1,.26.2c3.72,15.69-3.58,31.95-16.63,38.84,7.09-2,13.44-6.26,17-13.35,8.3-1,14-3.87,16.86-9.24a.25.25,0,0,1,.29-.13.27.27,0,0,1,.19.27c-.19,2.11-.95,6.33-4.08,8.27,7,0,12.51.89,17.8,3A.26.26,0,0,1,189.67,162.47ZM160.18,109a.26.26,0,0,0,.32,0,.27.27,0,0,0,0-.32c-1.62-2.79-.14-6.81,3.05-6.81,5.72,0,8.47,10.77,7.6,20.59-2.16-5.75-4-8-7.35-10.79a.24.24,0,0,0-.32,0,.23.23,0,0,0-.06.31,46.61,46.61,0,0,1,5.89,24.09c-1.46-6-3.19-9.32-8.13-14.38a.24.24,0,0,0-.32,0,.25.25,0,0,0-.09.31,44.22,44.22,0,0,1,.95,34.26.28.28,0,0,0,.06.29.28.28,0,0,0,.29,0c5.2-2.55,8.26-4.23,12.75-10.39-1.36-7.4-.23-11.05,3.17-17.19-3.94,9.91-1.84,23.89,8.19,29.58a.24.24,0,0,0,.32-.06.26.26,0,0,0,0-.33,17.93,17.93,0,0,1-4.16-17.93c-1.53,10.39,7.6,19.12,17.78,19.12,9.6,0,16.15-7.51,15.61-14.94s-5.44-11-9.67-12.5a.25.25,0,0,0-.3.1.24.24,0,0,0,0,.31c5.61,5.7,6.38,16.5-3.58,19.76,5.86-5,3.69-16.82-5.69-17.72a.26.26,0,0,0-.27.17.28.28,0,0,0,.11.3,8,8,0,0,1,3.68,6.57c0,4.67-3.43,6.51-5.68,6.51-3.42,0-6.26-3.25-6.26-8.18,0-5.84,5.26-10.68,12-11.43s12.78,2.15,15.75,6.46a.25.25,0,0,0,.31.08.24.24,0,0,0,.14-.29A17.14,17.14,0,0,0,189.47,125c6.61-7.5,17-7.6,25.72.09a.26.26,0,0,0,.32,0,.25.25,0,0,0,.07-.32c-2.66-5.4-9.25-11.81-18.6-10.88-8.56.86-13.52,9-14.53,15.69-.55-8.52,1.4-14.53,8.76-20.14a.26.26,0,0,0,.07-.32.26.26,0,0,0-.3-.13c-6.78,2-12.23,5.43-15,12.54,0-6.16,2.14-12.37,7.53-16.51a.24.24,0,0,0,.07-.31.25.25,0,0,0-.29-.13c-3.46,1-6.17,2.49-8.14,5.18-1.31-11.1-6.52-17.69-12.53-17.69-4.12,0-7.2,3-7.2,7.87A11.36,11.36,0,0,0,160.18,109ZM61,200.62c3.17,3.91,9.54,5.39,16.43,4A22.7,22.7,0,0,0,79,216.1a.26.26,0,0,0,.29.13.26.26,0,0,0,.19-.26c-.37-8.76,4.62-15.84,13.45-18.9C86,201.82,84,211.26,87.29,216.13a.25.25,0,0,0,.31.09.25.25,0,0,0,.15-.28c-.37-2.06.61-4.68,2.71-6.72,2.91-2.82,6.85-3.45,8.82-1.43s1.19,6-1.71,8.76a9.58,9.58,0,0,1-3.45,2.18A.28.28,0,0,0,94,219a.26.26,0,0,0,.23.22c6.39.55,10.77-3.26,13.52-7.88s7.57-8.41,13.21-7.67a.26.26,0,0,0,.27-.17.24.24,0,0,0-.11-.3,11,11,0,0,0-9.86-1.05c5.79-4.91,14.05-7.74,21.84-5.23a.27.27,0,0,0,.29-.1.26.26,0,0,0,0-.31c-5.9-6.57-17.69-6.7-25.1-1.37,3-4.32,7.06-7.49,14.29-8.48a.28.28,0,0,0,.22-.23.26.26,0,0,0-.17-.26c-8.29-3.08-16.6,0-23.44,8.21a26.35,26.35,0,0,1,14.76-14,.25.25,0,0,0,.17-.28.26.26,0,0,0-.25-.21c-3.94-.08-7.48.86-12.26,3.57,3.51-5.69,2.74-15.64-2.37-22.26a.27.27,0,0,0-.3-.08.26.26,0,0,0-.15.28c1.18,7.2-1.3,15.33-5.61,19.64a18.18,18.18,0,0,0-5.9-19.64.26.26,0,0,0-.25-.05.27.27,0,0,0-.17.2c-1.23,9.42-11.77,19-20.6,19.78a.25.25,0,0,0,0,.5,20.83,20.83,0,0,0,12.39-1A21.76,21.76,0,0,1,69,187a.26.26,0,0,0-.17.28.25.25,0,0,0,.23.22A20.39,20.39,0,0,0,81.77,184a31.44,31.44,0,0,1-19.43,13.51.25.25,0,0,0-.19.26.26.26,0,0,0,.22.24c11.92,1.3,21.75-3.32,28.22-11.92-1.64,4.9-6.36,9.76-12.94,12.62-5.85,2.54-11.85,2.95-16.42,1.51a.27.27,0,0,0-.29.1A.25.25,0,0,0,61,200.62Zm52.91-75.57c-4.81,10.49-4.47,18.68-.6,29.05a.26.26,0,0,0,.5-.1c-.63-12.62,2.82-21.65,10.29-27.8-8.25,9.85-4.35,29.56,8.83,29.56,9.58,0,17.51-8,19.45-17.53a.25.25,0,0,0-.16-.29.24.24,0,0,0-.3.11c-2.85,4.76-7.41,7.85-12.46,7.85-8.14,0-10.54-6.46-10.54-11,0-6.18,4.92-11.34,8.7-11.34a4.94,4.94,0,0,1,5.05,4.93,8.88,8.88,0,0,1-6.38,8.16.25.25,0,0,0-.18.28.26.26,0,0,0,.25.22,10.48,10.48,0,0,0,9.63-5.57,17.4,17.4,0,0,1-.64,7.72.25.25,0,0,0,.12.3.25.25,0,0,0,.32-.07c7.36-9.39,3.84-25.62-2-32.35,5.53,4,10.42,12.63,10.34,24.39a.26.26,0,0,0,.49.1c4.11-10.26,1.93-29.25-9.28-39.86a20.19,20.19,0,0,1,9.12.7.27.27,0,0,0,.3-.12.25.25,0,0,0-.06-.32c-4.09-3.45-9.81-4.54-15.26-4.54,4.7,5.5,3.13,16.55-4.36,16.55-5.34,0-7.77-8.3-3.64-12.78a.27.27,0,0,0,0-.31.25.25,0,0,0-.3-.1c-4.77,1.65-9.94,5.79-9.94,11,0,5,4.81,9.39,11.8,9-8.82,2.5-18.05-.27-22.88-6.26a.25.25,0,0,0-.44.23c2.79,10.71,12,15.2,23.44,13.7-9.29,3.76-23.25.49-29.43-7.31a.26.26,0,0,0-.31-.07.27.27,0,0,0-.14.28C104.61,118.15,108.1,123.09,113.86,125.05Z"/><path class="cls-2" d="M-20.86,144.34a.25.25,0,0,1,.24-.21c12.91-.14,24.76-3.27,34-11.52-8,5.56-22.94,7.51-31.52,3.62a.27.27,0,0,1-.15-.29.26.26,0,0,1,.26-.19c10.68.29,19.28-3,26-9-6.87-.42-12.57-4.74-12.55-9.84a.26.26,0,0,1,.2-.25.27.27,0,0,1,.28.14c1.12,2.49,4.75,3.79,8.58,2.88,4.18-1,7-4.18,6.3-7.16-.47-2-2.43-3.4-4.95-3.79a.25.25,0,0,1,0-.5,17.43,17.43,0,0,1,3.31,0c6.49.62,11.52,4.6,12,9.18,4.71-.55,8.89-3.16,10.38-6.77a.26.26,0,0,1,.28-.16.27.27,0,0,1,.21.23c.38,4.75-1.26,7.84-5,10.86a21.8,21.8,0,0,1,17.25.53.26.26,0,0,1,.15.28.28.28,0,0,1-.24.21,16.22,16.22,0,0,0-11.73,5.07c18.25-5.13,33.08,6.2,28,23.05a.26.26,0,0,1-.27.18.26.26,0,0,1-.23-.23c-.91-9.71-7.7-16.11-17.86-17.07a17.45,17.45,0,0,1,11.56,15.53.25.25,0,0,1-.48.12,16.77,16.77,0,0,0-14.16-9.81c6.33,2.58,10.39,8.6,11.57,16.42a.26.26,0,0,1-.18.28A.25.25,0,0,1,50,156c-3.87-7.58-12.16-12.79-22.45-8.81-10.61,4.11-15.27,16.39-16.3,25a.26.26,0,0,1-.24.22.25.25,0,0,1-.26-.19C7,156.6,14.32,140.34,27.38,133.45c-7.1,2-13.44,6.26-17,13.35-8.29,1-14,3.87-16.86,9.24a.25.25,0,0,1-.29.13A.27.27,0,0,1-7,155.9c.19-2.11,1-6.33,4.08-8.27-7,0-12.51-.89-17.8-3A.24.24,0,0,1-20.86,144.34ZM8.62,197.81a.24.24,0,0,0-.31,0,.25.25,0,0,0-.05.31c1.62,2.8.14,6.82-3,6.82-5.72,0-8.47-10.77-7.6-20.59,2.17,5.75,4,8,7.35,10.79a.24.24,0,0,0,.32,0,.24.24,0,0,0,.07-.31,46.53,46.53,0,0,1-5.9-24.09c1.46,6,3.2,9.32,8.13,14.38a.24.24,0,0,0,.32,0,.25.25,0,0,0,.09-.31,44.29,44.29,0,0,1-1-34.27.25.25,0,0,0-.06-.28.26.26,0,0,0-.29,0c-5.2,2.55-8.26,4.23-12.75,10.39,1.36,7.4.23,11.05-3.17,17.2,3.94-9.92,1.84-23.9-8.19-29.6a.25.25,0,0,0-.32.07.26.26,0,0,0,0,.33,17.88,17.88,0,0,1,4.16,17.93c1.53-10.39-7.59-19.12-17.78-19.12-9.6,0-16.15,7.51-15.61,14.94s5.45,11,9.67,12.5a.25.25,0,0,0,.3-.1.26.26,0,0,0,0-.32c-5.61-5.69-6.38-16.49,3.58-19.76-5.86,5.06-3.69,16.83,5.69,17.73a.26.26,0,0,0,.27-.17.26.26,0,0,0-.11-.3,8,8,0,0,1-3.67-6.57c0-4.68,3.42-6.51,5.67-6.51,3.42,0,6.26,3.25,6.26,8.18,0,5.84-5.26,10.68-12,11.43s-12.78-2.15-15.75-6.46a.25.25,0,0,0-.31-.08.25.25,0,0,0-.14.29,17.15,17.15,0,0,0,26.89,9.51c-6.62,7.5-17,7.6-25.73-.09a.26.26,0,0,0-.32,0,.24.24,0,0,0-.07.31c2.66,5.41,9.25,11.82,18.6,10.89,8.56-.86,13.52-9,14.53-15.69.55,8.52-1.4,14.53-8.76,20.14a.28.28,0,0,0-.07.32.26.26,0,0,0,.3.13c6.78-2,12.23-5.43,15.05-12.55,0,6.17-2.14,12.38-7.53,16.52a.24.24,0,0,0-.07.31.25.25,0,0,0,.29.13c3.46-1,6.18-2.49,8.14-5.18C-5,208.11.22,214.7,6.23,214.7c4.12,0,7.2-3,7.2-7.87A11.36,11.36,0,0,0,8.62,197.81Zm99.23-91.62c-3.16-3.91-9.54-5.4-16.43-4a22.82,22.82,0,0,0-1.61-11.49.28.28,0,0,0-.3-.13.26.26,0,0,0-.19.25c.38,8.77-4.62,15.85-13.45,18.91,6.91-4.75,8.93-14.19,5.64-19.06a.25.25,0,0,0-.46.19c.37,2.06-.61,4.68-2.71,6.72-2.91,2.82-6.85,3.45-8.81,1.43s-1.2-6,1.7-8.76a9.58,9.58,0,0,1,3.45-2.18.26.26,0,0,0,.17-.28.26.26,0,0,0-.23-.22C68.23,87,63.85,90.83,61.1,95.46s-7.57,8.41-13.21,7.67a.26.26,0,0,0-.27.17.26.26,0,0,0,.11.3,11,11,0,0,0,9.86,1.05c-5.79,4.91-14,7.74-21.84,5.23a.25.25,0,0,0-.29.1.26.26,0,0,0,0,.31c5.91,6.57,17.69,6.7,25.11,1.37-3,4.32-7.07,7.49-14.3,8.48a.26.26,0,0,0-.21.23.24.24,0,0,0,.16.26c8.29,3.08,16.6,0,23.44-8.21a26.35,26.35,0,0,1-14.76,14,.25.25,0,0,0-.17.28.26.26,0,0,0,.25.21c3.94.08,7.49-.86,12.26-3.57-3.5,5.69-2.74,15.64,2.37,22.26a.28.28,0,0,0,.31.08.26.26,0,0,0,.14-.28c-1.17-7.2,1.3-15.33,5.61-19.64a18.18,18.18,0,0,0,5.9,19.64.27.27,0,0,0,.26.05.29.29,0,0,0,.16-.21c1.23-9.41,11.77-19,20.6-19.77a.25.25,0,0,0,0-.5,20.83,20.83,0,0,0-12.39,1,21.87,21.87,0,0,1,9.56-6.25.25.25,0,0,0,.18-.27.27.27,0,0,0-.24-.22A20.39,20.39,0,0,0,87,122.81a31.44,31.44,0,0,1,19.43-13.51.27.27,0,0,0,.2-.26.26.26,0,0,0-.23-.24c-11.92-1.3-21.75,3.32-28.22,11.92,1.65-4.9,6.36-9.76,12.94-12.62,5.85-2.55,11.85-2.95,16.43-1.51a.25.25,0,0,0,.27-.4ZM54.94,181.76c4.81-10.49,4.47-18.69.6-29a.27.27,0,0,0-.29-.17.26.26,0,0,0-.2.27c.62,12.62-2.83,21.65-10.3,27.8,8.25-9.85,4.35-29.56-8.83-29.56-9.58,0-17.51,8-19.45,17.53a.26.26,0,0,0,.47.18c2.84-4.76,7.41-7.85,12.45-7.85,8.14,0,10.54,6.46,10.54,11,0,6.18-4.92,11.34-8.7,11.34a4.93,4.93,0,0,1-5-4.93,8.86,8.86,0,0,1,6.37-8.16.26.26,0,0,0,.18-.28.25.25,0,0,0-.25-.22,10.48,10.48,0,0,0-9.63,5.57,17.4,17.4,0,0,1,.64-7.72.24.24,0,0,0-.12-.3.25.25,0,0,0-.32.07c-7.35,9.39-3.83,25.62,2,32.35-5.53-4-10.42-12.63-10.34-24.39a.25.25,0,0,0-.2-.25.26.26,0,0,0-.29.15C10.1,185.4,12.28,204.39,23.49,215a20.2,20.2,0,0,1-9.12-.7.27.27,0,0,0-.3.12.25.25,0,0,0,.06.32c4.09,3.46,9.81,4.54,15.26,4.54-4.69-5.5-3.13-16.55,4.36-16.55,5.35,0,7.77,8.3,3.65,12.78a.26.26,0,0,0,0,.31.25.25,0,0,0,.3.1c4.78-1.65,9.94-5.79,9.94-11,0-5-4.81-9.39-11.8-9.05,8.82-2.5,18,.27,22.88,6.26a.26.26,0,0,0,.45-.23c-2.8-10.71-12-15.2-23.44-13.7,9.28-3.76,23.25-.48,29.42,7.31a.26.26,0,0,0,.31.07.27.27,0,0,0,.14-.28C64.2,188.66,60.7,183.71,54.94,181.76Z"/><path class="cls-3" d="M81.33,162.47a.26.26,0,0,1-.25.21c-12.91.14-24.75,3.27-34,11.52,8-5.56,22.94-7.51,31.53-3.62a.25.25,0,0,1,.14.29.26.26,0,0,1-.26.19c-10.68-.29-19.27,3-26,9,6.87.42,12.57,4.74,12.56,9.84a.26.26,0,0,1-.49.1c-1.12-2.48-4.75-3.78-8.58-2.88-4.18,1-7,4.19-6.3,7.17.47,2,2.44,3.4,5,3.79a.25.25,0,0,1,0,.5,17.53,17.53,0,0,1-3.32,0c-6.49-.62-11.51-4.6-12-9.18-4.71.55-8.88,3.16-10.38,6.77a.25.25,0,0,1-.49-.07c-.37-4.75,1.26-7.84,5-10.86a21.8,21.8,0,0,1-17.25-.53.27.27,0,0,1-.14-.29.26.26,0,0,1,.24-.2,16.24,16.24,0,0,0,11.73-5.07C9.82,184.25-5,172.92.12,156.07a.26.26,0,0,1,.27-.18.26.26,0,0,1,.23.23c.92,9.71,7.7,16.11,17.86,17.07A17.45,17.45,0,0,1,6.92,157.66a.27.27,0,0,1,.19-.26.26.26,0,0,1,.3.14,16.75,16.75,0,0,0,14.16,9.81c-6.34-2.58-10.4-8.6-11.57-16.42a.25.25,0,0,1,.17-.28.25.25,0,0,1,.3.13c3.87,7.58,12.16,12.79,22.45,8.81,10.62-4.11,15.27-16.39,16.3-25a.28.28,0,0,1,.24-.23.26.26,0,0,1,.26.2c3.72,15.69-3.58,31.95-16.63,38.84,7.09-2,13.44-6.26,17-13.35,8.3-1,14-3.87,16.86-9.24a.26.26,0,0,1,.3-.13.27.27,0,0,1,.18.27c-.18,2.11-.94,6.33-4.08,8.27,7,0,12.51.89,17.8,3A.26.26,0,0,1,81.33,162.47ZM51.84,109a.26.26,0,0,0,.32,0,.27.27,0,0,0,0-.32c-1.62-2.79-.14-6.81,3-6.81,5.72,0,8.47,10.77,7.6,20.59-2.16-5.75-4-8-7.35-10.79a.24.24,0,0,0-.32,0,.23.23,0,0,0-.06.31A46.61,46.61,0,0,1,61,136.05c-1.46-6-3.19-9.32-8.12-14.38a.26.26,0,0,0-.33,0,.25.25,0,0,0-.09.31,44.22,44.22,0,0,1,1,34.26.28.28,0,0,0,.06.29.28.28,0,0,0,.29,0C59,154,62,152.31,66.52,146.15c-1.36-7.4-.23-11.05,3.17-17.19-3.94,9.91-1.84,23.89,8.19,29.58a.24.24,0,0,0,.32-.06.25.25,0,0,0,0-.33A17.93,17.93,0,0,1,74,140.22c-1.53,10.39,7.6,19.12,17.78,19.12,9.6,0,16.15-7.51,15.61-14.94s-5.44-11-9.67-12.5a.25.25,0,0,0-.3.1.26.26,0,0,0,0,.31c5.61,5.7,6.38,16.5-3.58,19.76,5.86-5,3.69-16.82-5.69-17.72a.24.24,0,0,0-.26.17.26.26,0,0,0,.1.3,8,8,0,0,1,3.68,6.57c0,4.67-3.42,6.51-5.68,6.51-3.42,0-6.26-3.25-6.26-8.18,0-5.84,5.26-10.68,12-11.43s12.78,2.15,15.75,6.46a.26.26,0,0,0,.32.08.25.25,0,0,0,.14-.29A17.15,17.15,0,0,0,81.13,125c6.61-7.5,17-7.6,25.72.09a.26.26,0,0,0,.32,0,.27.27,0,0,0,.08-.32c-2.67-5.4-9.26-11.81-18.61-10.88-8.56.86-13.52,9-14.52,15.69-.56-8.52,1.39-14.53,8.75-20.14a.26.26,0,0,0-.22-.45c-6.79,2-12.23,5.43-15.05,12.54,0-6.16,2.14-12.37,7.52-16.51a.24.24,0,0,0,.07-.31.24.24,0,0,0-.29-.13c-3.45,1-6.17,2.49-8.14,5.18-1.31-11.1-6.52-17.69-12.52-17.69-4.13,0-7.21,3-7.21,7.87A11.36,11.36,0,0,0,51.84,109Zm-99.23,91.62c3.17,3.91,9.54,5.39,16.44,4a22.71,22.71,0,0,0,1.61,11.49.26.26,0,0,0,.29.13.24.24,0,0,0,.19-.26c-.37-8.76,4.62-15.84,13.45-18.9-6.91,4.75-8.92,14.19-5.64,19.06a.25.25,0,0,0,.31.09.25.25,0,0,0,.15-.28c-.37-2.06.61-4.68,2.72-6.72,2.9-2.82,6.85-3.45,8.81-1.43s1.19,6-1.71,8.76a9.58,9.58,0,0,1-3.45,2.18.28.28,0,0,0-.17.28.26.26,0,0,0,.23.22c6.39.55,10.77-3.26,13.52-7.88s7.57-8.41,13.21-7.67a.26.26,0,0,0,.27-.17.24.24,0,0,0-.11-.3,11,11,0,0,0-9.86-1.05c5.8-4.91,14.05-7.74,21.84-5.23a.27.27,0,0,0,.29-.1.27.27,0,0,0,0-.31c-5.91-6.57-17.69-6.7-25.11-1.37,3-4.32,7.06-7.49,14.29-8.48a.28.28,0,0,0,.22-.23.26.26,0,0,0-.17-.26c-8.29-3.08-16.6,0-23.44,8.21a26.34,26.34,0,0,1,14.77-14,.26.26,0,0,0,.16-.28.25.25,0,0,0-.25-.21c-3.94-.08-7.48.86-12.26,3.57,3.51-5.69,2.74-15.64-2.37-22.26a.27.27,0,0,0-.3-.08.26.26,0,0,0-.15.28c1.18,7.2-1.3,15.33-5.61,19.64a18.18,18.18,0,0,0-5.9-19.64.26.26,0,0,0-.25-.05.27.27,0,0,0-.17.2c-1.23,9.42-11.77,19-20.6,19.78a.26.26,0,0,0-.23.24.26.26,0,0,0,.2.26,20.83,20.83,0,0,0,12.39-1A21.76,21.76,0,0,1-39.36,187a.26.26,0,0,0-.17.28.25.25,0,0,0,.23.22A20.37,20.37,0,0,0-26.57,184,31.44,31.44,0,0,1-46,197.51a.25.25,0,0,0-.19.26A.27.27,0,0,0-46,198c11.92,1.3,21.75-3.32,28.22-11.92-1.64,4.9-6.36,9.76-12.94,12.62-5.85,2.54-11.85,2.95-16.42,1.51a.27.27,0,0,0-.29.1A.25.25,0,0,0-47.39,200.62ZM5.52,125.05c-4.81,10.49-4.47,18.68-.6,29.05a.26.26,0,0,0,.5-.1c-.62-12.62,2.82-21.65,10.3-27.8-8.25,9.85-4.36,29.56,8.82,29.56,9.58,0,17.51-8,19.45-17.53a.26.26,0,0,0-.15-.29.25.25,0,0,0-.31.11c-2.85,4.76-7.41,7.85-12.46,7.85-8.14,0-10.54-6.46-10.54-11,0-6.18,4.92-11.34,8.71-11.34a4.94,4.94,0,0,1,5,4.93,8.88,8.88,0,0,1-6.38,8.16.25.25,0,0,0-.18.28.26.26,0,0,0,.25.22,10.48,10.48,0,0,0,9.63-5.57A17.4,17.4,0,0,1,37,139.3a.25.25,0,0,0,.13.3.24.24,0,0,0,.31-.07c7.36-9.39,3.84-25.62-2-32.35,5.53,4,10.42,12.63,10.34,24.39a.26.26,0,0,0,.21.25.25.25,0,0,0,.28-.15c4.11-10.26,1.93-29.25-9.28-39.86a20.19,20.19,0,0,1,9.12.7.26.26,0,0,0,.3-.12.26.26,0,0,0,0-.32c-4.1-3.45-9.82-4.54-15.27-4.54,4.7,5.5,3.14,16.55-4.35,16.55-5.35,0-7.78-8.3-3.65-12.78a.24.24,0,0,0,0-.31.24.24,0,0,0-.29-.1c-4.78,1.65-10,5.79-10,11,0,5,4.81,9.39,11.8,9-8.82,2.5-18-.27-22.88-6.26a.25.25,0,0,0-.44.23c2.79,10.71,12,15.2,23.44,13.7-9.28,3.76-23.25.49-29.43-7.31a.25.25,0,0,0-.3-.07.24.24,0,0,0-.14.28C-3.73,118.15-.24,123.09,5.52,125.05Z"/><path class="cls-2" d="M87.47,34.69a.27.27,0,0,1,.25-.2c12.91-.14,24.75-3.27,34-11.52-8,5.56-22.94,7.51-31.52,3.62A.26.26,0,0,1,90,26.3a.25.25,0,0,1,.26-.19c10.68.29,19.28-3,26-9-6.87-.42-12.57-4.74-12.55-9.84a.26.26,0,0,1,.2-.25.24.24,0,0,1,.28.14c1.12,2.49,4.75,3.78,8.58,2.88,4.18-1,7-4.19,6.3-7.16-.47-2-2.43-3.41-4.95-3.79a.26.26,0,0,1-.22-.26.27.27,0,0,1,.23-.24,17.53,17.53,0,0,1,3.32,0c6.49.62,11.52,4.6,12,9.18,4.71-.55,8.89-3.16,10.38-6.78a.26.26,0,0,1,.49.08c.37,4.75-1.26,7.84-5,10.86a21.8,21.8,0,0,1,17.25.53.26.26,0,0,1,.15.28.28.28,0,0,1-.24.21,16.26,16.26,0,0,0-11.74,5.07c18.26-5.14,33.09,6.2,28,23.05a.26.26,0,0,1-.27.18.26.26,0,0,1-.23-.23c-.91-9.71-7.7-16.12-17.86-17.08a17.47,17.47,0,0,1,11.56,15.54.25.25,0,0,1-.19.26.27.27,0,0,1-.3-.14,16.72,16.72,0,0,0-14.16-9.81c6.34,2.58,10.4,8.6,11.57,16.42a.25.25,0,0,1-.17.28.25.25,0,0,1-.3-.13c-3.87-7.58-12.16-12.79-22.45-8.81-10.62,4.11-15.27,16.39-16.3,25a.27.27,0,0,1-.24.22.25.25,0,0,1-.26-.19C115.36,47,122.66,30.7,135.72,23.81c-7.1,2-13.44,6.26-17,13.35-8.3,1-14,3.86-16.86,9.24a.25.25,0,0,1-.29.13.27.27,0,0,1-.19-.27c.19-2.11.94-6.33,4.08-8.27-7,0-12.51-.89-17.8-3A.28.28,0,0,1,87.47,34.69ZM117,88.17a.24.24,0,0,0-.31,0,.25.25,0,0,0-.05.31c1.62,2.8.14,6.82-3,6.82-5.72,0-8.47-10.77-7.6-20.6,2.17,5.76,4,8.06,7.35,10.8a.24.24,0,0,0,.32,0,.26.26,0,0,0,.07-.32,46.5,46.5,0,0,1-5.9-24.08c1.46,6,3.19,9.32,8.13,14.38a.24.24,0,0,0,.32,0,.25.25,0,0,0,.09-.31,44.24,44.24,0,0,1-1-34.27.24.24,0,0,0-.06-.28.26.26,0,0,0-.29,0c-5.2,2.55-8.26,4.23-12.75,10.39,1.36,7.4.23,11-3.17,17.19,3.94-9.91,1.84-23.89-8.19-29.59a.25.25,0,0,0-.32.07.26.26,0,0,0,0,.33A17.92,17.92,0,0,1,94.77,57C96.3,46.56,87.17,37.83,77,37.83c-9.6,0-16.15,7.51-15.61,14.94s5.44,11,9.67,12.5a.25.25,0,0,0,.3-.1.26.26,0,0,0,0-.32c-5.61-5.69-6.38-16.49,3.58-19.76C69,50.15,71.21,61.92,80.59,62.82a.26.26,0,0,0,.27-.17.27.27,0,0,0-.11-.3,8,8,0,0,1-3.68-6.57c0-4.68,3.43-6.51,5.68-6.51,3.42,0,6.26,3.25,6.26,8.18,0,5.84-5.26,10.68-12,11.43s-12.78-2.15-15.75-6.46a.25.25,0,0,0-.31-.09.26.26,0,0,0-.14.3,17.14,17.14,0,0,0,26.88,9.51c-6.61,7.5-17,7.6-25.72-.09a.26.26,0,0,0-.32,0,.24.24,0,0,0-.07.31c2.66,5.41,9.25,11.82,18.6,10.89,8.56-.86,13.52-9,14.53-15.69.55,8.52-1.4,14.53-8.76,20.14a.25.25,0,0,0-.07.32.26.26,0,0,0,.3.13c6.78-2,12.23-5.43,15-12.55,0,6.16-2.14,12.38-7.53,16.51a.26.26,0,0,0,.22.45c3.46-1,6.17-2.49,8.14-5.19,1.31,11.1,6.52,17.7,12.53,17.7,4.12,0,7.2-3,7.2-7.88A11.35,11.35,0,0,0,117,88.17ZM216.19-3.45c-3.17-3.91-9.54-5.4-16.44-4a22.71,22.71,0,0,0-1.61-11.49.26.26,0,0,0-.29-.14.27.27,0,0,0-.19.26C198-10,193-3,184.21.1c6.91-4.75,8.93-14.19,5.64-19.06a.27.27,0,0,0-.31-.1.26.26,0,0,0-.15.28c.37,2.06-.61,4.69-2.72,6.73-2.9,2.81-6.84,3.45-8.81,1.43s-1.19-6,1.71-8.76A9.75,9.75,0,0,1,183-21.57a.26.26,0,0,0,.17-.27.26.26,0,0,0-.23-.22c-6.39-.55-10.77,3.25-13.52,7.88s-7.57,8.41-13.21,7.67a.24.24,0,0,0-.27.17.24.24,0,0,0,.11.3,11.05,11.05,0,0,0,9.86,1C160.14-.08,151.88,2.75,144.09.24a.25.25,0,0,0-.29.1.26.26,0,0,0,0,.31c5.9,6.56,17.69,6.69,25.11,1.37-3,4.32-7.07,7.49-14.3,8.48a.28.28,0,0,0-.22.22.26.26,0,0,0,.17.27c8.29,3.08,16.6-.05,23.44-8.22a26.34,26.34,0,0,1-14.76,14,.25.25,0,0,0-.17.28.26.26,0,0,0,.25.21c3.94.08,7.48-.86,12.26-3.57C172.1,19.4,172.87,29.35,178,36a.25.25,0,0,0,.3.07.24.24,0,0,0,.15-.27c-1.18-7.2,1.3-15.33,5.61-19.64a18.18,18.18,0,0,0,5.9,19.64.26.26,0,0,0,.25,0,.3.3,0,0,0,.17-.21c1.23-9.42,11.77-19,20.6-19.77a.26.26,0,0,0,.23-.24.25.25,0,0,0-.2-.26,20.83,20.83,0,0,0-12.39,1,21.78,21.78,0,0,1,9.56-6.25.25.25,0,0,0-.06-.49,20.37,20.37,0,0,0-12.73,3.54A31.4,31.4,0,0,1,214.8-.34.25.25,0,0,0,215-.6a.24.24,0,0,0-.22-.24C202.85-2.14,193,2.48,186.55,11.08c1.64-4.9,6.36-9.76,12.94-12.62,5.85-2.55,11.85-2.95,16.42-1.51a.27.27,0,0,0,.29-.1A.25.25,0,0,0,216.19-3.45ZM163.28,72.12c4.81-10.49,4.47-18.69.6-29.06a.28.28,0,0,0-.29-.16.27.27,0,0,0-.21.27c.63,12.62-2.82,21.65-10.29,27.8,8.25-9.85,4.35-29.56-8.83-29.56-9.58,0-17.51,8-19.45,17.53a.24.24,0,0,0,.16.28.26.26,0,0,0,.31-.1c2.84-4.76,7.4-7.85,12.45-7.85,8.14,0,10.54,6.46,10.54,11,0,6.19-4.92,11.35-8.7,11.35a4.94,4.94,0,0,1-5-4.93,8.85,8.85,0,0,1,6.37-8.16.26.26,0,0,0,.18-.28.25.25,0,0,0-.25-.22,10.46,10.46,0,0,0-9.63,5.57,17.45,17.45,0,0,1,.64-7.73.24.24,0,0,0-.12-.29.26.26,0,0,0-.32.06c-7.36,9.4-3.84,25.63,2,32.36C127.85,86,123,77.36,123,65.6a.25.25,0,0,0-.21-.25.24.24,0,0,0-.28.15c-4.11,10.25-1.93,29.25,9.28,39.85a20,20,0,0,1-9.12-.69.26.26,0,0,0-.3.12.25.25,0,0,0,.06.32c4.09,3.45,9.81,4.54,15.26,4.54-4.69-5.5-3.13-16.56,4.36-16.56,5.35,0,7.77,8.3,3.64,12.79a.27.27,0,0,0,0,.31.26.26,0,0,0,.3.1c4.78-1.66,9.94-5.79,9.94-11,0-5-4.81-9.39-11.8-9.05,8.82-2.5,18,.27,22.88,6.25a.25.25,0,0,0,.31.07.24.24,0,0,0,.13-.29c-2.79-10.72-12-15.2-23.43-13.71,9.28-3.75,23.25-.48,29.42,7.31a.24.24,0,0,0,.3.08.26.26,0,0,0,.15-.28C172.53,79,169,74.07,163.28,72.12Z"/><path class="cls-3" d="M189.67,52.83a.27.27,0,0,1-.25.21c-12.91.13-24.75,3.27-34,11.51,8-5.55,22.94-7.51,31.53-3.62a.29.29,0,0,1,.14.29.27.27,0,0,1-.26.2c-10.68-.29-19.28,3-26,9,6.87.43,12.57,4.74,12.55,9.85a.26.26,0,0,1-.2.25.26.26,0,0,1-.28-.15c-1.12-2.49-4.75-3.78-8.58-2.88-4.18,1-7,4.19-6.3,7.17.47,2,2.43,3.4,5,3.79a.24.24,0,0,1,.22.25.27.27,0,0,1-.23.25,18.4,18.4,0,0,1-3.32,0c-6.49-.62-11.51-4.6-11.95-9.18-4.71.54-8.88,3.16-10.38,6.77a.26.26,0,0,1-.27.16.27.27,0,0,1-.22-.24c-.37-4.75,1.26-7.83,5-10.85A21.76,21.76,0,0,1,124.59,75a.24.24,0,0,1-.14-.28.25.25,0,0,1,.24-.2,16.3,16.3,0,0,0,11.73-5.07c-18.26,5.13-33.09-6.2-28-23.05a.26.26,0,0,1,.27-.18.25.25,0,0,1,.23.23c.91,9.71,7.7,16.11,17.86,17.07A17.45,17.45,0,0,1,115.26,48a.27.27,0,0,1,.19-.27.28.28,0,0,1,.3.15,16.74,16.74,0,0,0,14.16,9.81c-6.34-2.58-10.4-8.6-11.57-16.42a.25.25,0,0,1,.17-.28.24.24,0,0,1,.3.13C122.68,48.72,131,53.93,141.26,50c10.62-4.11,15.27-16.39,16.3-25a.25.25,0,0,1,.5,0c3.72,15.69-3.58,32-16.63,38.84,7.09-2,13.44-6.26,17-13.36,8.3-1,14-3.86,16.86-9.24a.26.26,0,0,1,.29-.12.26.26,0,0,1,.19.26c-.19,2.11-.95,6.33-4.08,8.28a45.77,45.77,0,0,1,17.8,3A.26.26,0,0,1,189.67,52.83ZM160.18-.64a.26.26,0,0,0,.32,0,.27.27,0,0,0,0-.32c-1.62-2.79-.14-6.81,3.05-6.81,5.72,0,8.47,10.77,7.6,20.59-2.16-5.75-4-8-7.35-10.79a.24.24,0,0,0-.32,0,.23.23,0,0,0-.06.31,46.61,46.61,0,0,1,5.89,24.09c-1.46-6-3.19-9.32-8.13-14.38a.23.23,0,0,0-.32,0,.25.25,0,0,0-.09.31,44.22,44.22,0,0,1,.95,34.26.26.26,0,0,0,.35.33c5.2-2.55,8.26-4.23,12.75-10.39-1.36-7.4-.23-11,3.17-17.2-3.94,9.92-1.84,23.9,8.19,29.59a.24.24,0,0,0,.32-.06.26.26,0,0,0,0-.33,17.93,17.93,0,0,1-4.16-17.93C180.84,41,190,49.69,200.15,49.69c9.6,0,16.15-7.5,15.61-14.94s-5.44-11-9.67-12.49a.25.25,0,0,0-.3.1.24.24,0,0,0,0,.31c5.61,5.7,6.38,16.5-3.58,19.76,5.86-5,3.69-16.83-5.69-17.72a.26.26,0,0,0-.27.17.26.26,0,0,0,.11.29,8.05,8.05,0,0,1,3.68,6.58c0,4.67-3.43,6.51-5.68,6.51-3.42,0-6.26-3.26-6.26-8.18,0-5.84,5.26-10.68,12-11.43s12.78,2.15,15.75,6.45a.25.25,0,0,0,.45-.2,17.13,17.13,0,0,0-26.88-9.51c6.61-7.5,17-7.61,25.72.09a.26.26,0,0,0,.32,0,.25.25,0,0,0,.07-.32c-2.66-5.4-9.25-11.82-18.6-10.88-8.56.85-13.52,9-14.53,15.69-.55-8.52,1.4-14.54,8.76-20.14a.26.26,0,0,0,.07-.32.25.25,0,0,0-.3-.13c-6.78,2-12.23,5.42-15,12.54,0-6.16,2.14-12.37,7.53-16.51a.24.24,0,0,0,.07-.31.24.24,0,0,0-.29-.13c-3.46,1-6.17,2.49-8.14,5.18-1.31-11.1-6.52-17.69-12.53-17.69-4.12,0-7.2,3-7.2,7.87A11.38,11.38,0,0,0,160.18-.64ZM61,91c3.17,3.9,9.54,5.39,16.43,4A22.64,22.64,0,0,0,79,106.45a.25.25,0,0,0,.29.14.27.27,0,0,0,.19-.26c-.37-8.76,4.62-15.84,13.45-18.91C86,92.18,84,101.62,87.29,106.49a.25.25,0,0,0,.31.09.25.25,0,0,0,.15-.28c-.37-2.06.61-4.68,2.71-6.72,2.91-2.82,6.85-3.46,8.82-1.43s1.19,5.94-1.71,8.76a9.72,9.72,0,0,1-3.45,2.18.27.27,0,0,0-.17.27.25.25,0,0,0,.23.22c6.39.56,10.77-3.25,13.52-7.87s7.57-8.41,13.21-7.67a.26.26,0,0,0,.27-.17.24.24,0,0,0-.11-.3,11,11,0,0,0-9.86-1.06c5.79-4.9,14.05-7.74,21.84-5.22a.26.26,0,0,0,.29-.11.24.24,0,0,0,0-.3c-5.9-6.57-17.69-6.7-25.1-1.38,3-4.31,7.06-7.48,14.29-8.47a.28.28,0,0,0,.22-.23.26.26,0,0,0-.17-.26c-8.29-3.08-16.6,0-23.44,8.21a26.32,26.32,0,0,1,14.76-14,.25.25,0,0,0,.17-.28.26.26,0,0,0-.25-.21c-3.94-.08-7.48.86-12.26,3.57,3.51-5.69,2.74-15.64-2.37-22.26a.27.27,0,0,0-.3-.08.26.26,0,0,0-.15.28c1.18,7.2-1.3,15.32-5.61,19.64a18.2,18.2,0,0,0-5.9-19.65.25.25,0,0,0-.25,0,.27.27,0,0,0-.17.2c-1.23,9.42-11.77,19-20.6,19.78a.26.26,0,0,0-.23.23.26.26,0,0,0,.2.27,20.83,20.83,0,0,0,12.39-1A21.76,21.76,0,0,1,69,77.4a.25.25,0,0,0-.17.27.25.25,0,0,0,.23.23,20.45,20.45,0,0,0,12.73-3.54A31.44,31.44,0,0,1,62.34,87.87a.25.25,0,0,0-.19.26.26.26,0,0,0,.22.24c11.92,1.3,21.75-3.32,28.22-11.92C89,81.35,84.23,86.2,77.65,89.07,71.8,91.61,65.8,92,61.23,90.58a.24.24,0,0,0-.29.1A.26.26,0,0,0,61,91Zm52.91-75.57c-4.81,10.48-4.47,18.68-.6,29.05a.26.26,0,0,0,.5-.1c-.63-12.62,2.82-21.65,10.29-27.81-8.25,9.86-4.35,29.56,8.83,29.56,9.58,0,17.51-8,19.45-17.52a.25.25,0,0,0-.16-.29.24.24,0,0,0-.3.11c-2.85,4.76-7.41,7.85-12.46,7.85-8.14,0-10.54-6.47-10.54-11,0-6.18,4.92-11.34,8.7-11.34a4.94,4.94,0,0,1,5.05,4.92A8.88,8.88,0,0,1,136.24,27a.25.25,0,0,0-.18.28.26.26,0,0,0,.25.22,10.48,10.48,0,0,0,9.63-5.57,17.42,17.42,0,0,1-.64,7.72.25.25,0,0,0,.12.3.25.25,0,0,0,.32-.07c7.36-9.39,3.84-25.62-2-32.36,5.53,4,10.42,12.64,10.34,24.4a.26.26,0,0,0,.21.25.25.25,0,0,0,.28-.16c4.11-10.25,1.93-29.24-9.28-39.85a20.18,20.18,0,0,1,9.12.69.25.25,0,0,0,.3-.11.25.25,0,0,0-.06-.32c-4.09-3.46-9.81-4.54-15.26-4.54,4.7,5.5,3.13,16.55-4.36,16.55-5.34,0-7.77-8.3-3.64-12.78a.27.27,0,0,0,0-.31.25.25,0,0,0-.3-.1c-4.77,1.65-9.94,5.79-9.94,11,0,5.05,4.81,9.4,11.8,9.06-8.82,2.5-18.05-.27-22.88-6.26A.25.25,0,0,0,109.8-5a.24.24,0,0,0-.13.29c2.79,10.71,12,15.2,23.44,13.7-9.29,3.76-23.25.48-29.43-7.31a.26.26,0,0,0-.31-.07.27.27,0,0,0-.14.28C104.61,8.51,108.1,13.45,113.86,15.41Z"/><path class="cls-2" d="M-20.86,34.69a.25.25,0,0,1,.24-.2c12.91-.14,24.76-3.27,34-11.52-8,5.56-22.94,7.51-31.52,3.62a.27.27,0,0,1-.15-.29.25.25,0,0,1,.26-.19c10.68.29,19.28-3,26-9C1.05,16.72-4.65,12.4-4.63,7.3a.26.26,0,0,1,.2-.25.24.24,0,0,1,.28.14C-3,9.68.6,11,4.43,10.07c4.18-1,7-4.19,6.3-7.16C10.26.89,8.3-.5,5.78-.88a.25.25,0,0,1-.21-.26.25.25,0,0,1,.23-.24,17.43,17.43,0,0,1,3.31,0c6.49.62,11.52,4.6,12,9.18C25.77,7.25,30,4.64,31.44,1a.27.27,0,0,1,.28-.15.26.26,0,0,1,.21.23c.38,4.75-1.26,7.84-5,10.86a21.8,21.8,0,0,1,17.25.53.26.26,0,0,1,.15.28.28.28,0,0,1-.24.21,16.22,16.22,0,0,0-11.73,5.07c18.25-5.14,33.08,6.2,28,23.05a.26.26,0,0,1-.27.18.26.26,0,0,1-.23-.23C58.93,31.34,52.14,24.93,42,24A17.47,17.47,0,0,1,53.54,39.51a.25.25,0,0,1-.48.12A16.75,16.75,0,0,0,38.9,29.82c6.33,2.58,10.39,8.6,11.57,16.42a.26.26,0,0,1-.18.28.25.25,0,0,1-.3-.13c-3.87-7.58-12.16-12.79-22.45-8.81-10.61,4.11-15.27,16.39-16.3,25a.27.27,0,0,1-.24.22.25.25,0,0,1-.26-.19C7,47,14.32,30.7,27.38,23.81c-7.1,2-13.44,6.26-17,13.35-8.29,1-14,3.86-16.86,9.24a.25.25,0,0,1-.29.13A.27.27,0,0,1-7,46.26c.19-2.11,1-6.33,4.08-8.27-7,0-12.51-.89-17.8-3A.26.26,0,0,1-20.86,34.69ZM8.62,88.17a.24.24,0,0,0-.31,0,.25.25,0,0,0-.05.31c1.62,2.8.14,6.82-3,6.82-5.72,0-8.47-10.77-7.6-20.6,2.17,5.76,4,8.06,7.35,10.8a.24.24,0,0,0,.32,0,.25.25,0,0,0,.07-.32A46.5,46.5,0,0,1-.55,61.12c1.46,6,3.2,9.32,8.13,14.38a.24.24,0,0,0,.32,0A.25.25,0,0,0,8,75.22,44.29,44.29,0,0,1,7,41,.24.24,0,0,0,7,40.67a.26.26,0,0,0-.29,0C1.49,43.18-1.57,44.86-6.06,51c1.36,7.4.23,11-3.17,17.19,3.94-9.91,1.84-23.89-8.19-29.59a.25.25,0,0,0-.32.07.26.26,0,0,0,0,.33A17.87,17.87,0,0,1-13.57,57C-12,46.56-21.16,37.83-31.35,37.83c-9.6,0-16.15,7.51-15.61,14.94s5.45,11,9.67,12.5a.25.25,0,0,0,.3-.1.26.26,0,0,0,0-.32c-5.61-5.69-6.38-16.49,3.58-19.76-5.86,5.06-3.69,16.83,5.69,17.73a.26.26,0,0,0,.27-.17.26.26,0,0,0-.11-.3,8,8,0,0,1-3.67-6.57c0-4.68,3.42-6.51,5.67-6.51,3.42,0,6.26,3.25,6.26,8.18,0,5.84-5.26,10.68-12,11.43s-12.78-2.15-15.75-6.46a.25.25,0,0,0-.31-.09.27.27,0,0,0-.14.3,17.15,17.15,0,0,0,26.89,9.51c-6.62,7.5-17,7.6-25.73-.09a.26.26,0,0,0-.32,0,.24.24,0,0,0-.07.31c2.66,5.41,9.25,11.82,18.6,10.89,8.56-.86,13.52-9,14.53-15.69.55,8.52-1.4,14.53-8.76,20.14a.28.28,0,0,0-.07.32.26.26,0,0,0,.3.13c6.78-2,12.23-5.43,15.05-12.55,0,6.16-2.14,12.38-7.53,16.51a.25.25,0,0,0-.07.32.25.25,0,0,0,.29.13c3.46-1,6.18-2.49,8.14-5.19C-5,98.46.22,105.06,6.23,105.06c4.12,0,7.2-3,7.2-7.88A11.35,11.35,0,0,0,8.62,88.17ZM107.85-3.45c-3.16-3.91-9.54-5.4-16.43-4a22.82,22.82,0,0,0-1.61-11.49.28.28,0,0,0-.3-.14.27.27,0,0,0-.19.26C89.7-10,84.7-3,75.87.1,82.78-4.65,84.8-14.09,81.51-19a.27.27,0,0,0-.31-.1.26.26,0,0,0-.15.28c.37,2.06-.61,4.69-2.71,6.73-2.91,2.81-6.85,3.45-8.81,1.43s-1.2-6,1.7-8.76a9.75,9.75,0,0,1,3.45-2.19.25.25,0,0,0,.17-.27.26.26,0,0,0-.23-.22c-6.39-.55-10.77,3.25-13.52,7.88S53.53-5.77,47.89-6.51a.24.24,0,0,0-.27.17.26.26,0,0,0,.11.3,11.05,11.05,0,0,0,9.86,1C51.8-.08,43.55,2.75,35.75.24a.25.25,0,0,0-.29.1.26.26,0,0,0,0,.31C41.4,7.21,53.18,7.34,60.6,2c-3,4.32-7.07,7.49-14.3,8.48a.25.25,0,0,0-.21.22.24.24,0,0,0,.16.27c8.29,3.08,16.6-.05,23.44-8.22a26.34,26.34,0,0,1-14.76,14,.25.25,0,0,0-.17.28.26.26,0,0,0,.25.21c3.94.08,7.49-.86,12.26-3.57C63.77,19.4,64.53,29.35,69.64,36A.26.26,0,0,0,70,36a.25.25,0,0,0,.14-.27c-1.17-7.2,1.3-15.33,5.61-19.64a18.18,18.18,0,0,0,5.9,19.64.27.27,0,0,0,.26,0,.31.31,0,0,0,.16-.21c1.23-9.42,11.77-19,20.6-19.77a.25.25,0,0,0,.23-.24.24.24,0,0,0-.2-.26,20.83,20.83,0,0,0-12.39,1,21.78,21.78,0,0,1,9.56-6.25.25.25,0,0,0,.18-.27.27.27,0,0,0-.24-.22A20.39,20.39,0,0,0,87,13.17,31.4,31.4,0,0,1,106.46-.34a.27.27,0,0,0,.2-.26.26.26,0,0,0-.23-.24C94.51-2.14,84.68,2.48,78.21,11.08c1.65-4.9,6.36-9.76,12.94-12.62C97-4.09,103-4.49,107.58-3a.26.26,0,0,0,.28-.1A.25.25,0,0,0,107.85-3.45ZM54.94,72.12c4.81-10.49,4.47-18.69.6-29.06a.28.28,0,0,0-.29-.16.26.26,0,0,0-.2.27c.62,12.62-2.83,21.65-10.3,27.8C53,61.12,49.1,41.41,35.92,41.41c-9.58,0-17.51,8-19.45,17.53a.25.25,0,0,0,.16.28.26.26,0,0,0,.31-.1c2.84-4.76,7.41-7.85,12.45-7.85,8.14,0,10.54,6.46,10.54,11,0,6.19-4.92,11.35-8.7,11.35a4.94,4.94,0,0,1-5-4.93,8.85,8.85,0,0,1,6.37-8.16.26.26,0,0,0,.18-.28.25.25,0,0,0-.25-.22,10.47,10.47,0,0,0-9.63,5.57,17.45,17.45,0,0,1,.64-7.73.23.23,0,0,0-.12-.29.26.26,0,0,0-.32.06C15.71,67,19.23,83.26,25,90,19.51,86,14.62,77.36,14.7,65.6a.25.25,0,0,0-.2-.25.26.26,0,0,0-.29.15c-4.11,10.25-1.93,29.25,9.28,39.85a20,20,0,0,1-9.12-.69.26.26,0,0,0-.3.12.25.25,0,0,0,.06.32c4.09,3.45,9.81,4.54,15.26,4.54-4.69-5.5-3.13-16.56,4.36-16.56,5.35,0,7.77,8.3,3.65,12.79a.26.26,0,0,0,0,.31.27.27,0,0,0,.3.1c4.78-1.66,9.94-5.79,9.94-11,0-5-4.81-9.39-11.8-9.05,8.82-2.5,18,.27,22.88,6.25a.26.26,0,0,0,.45-.22c-2.8-10.72-12-15.2-23.44-13.71C45,74.78,59,78.05,65.12,85.84a.25.25,0,0,0,.31.08.27.27,0,0,0,.14-.28C64.2,79,60.7,74.07,54.94,72.12Z"/><path class="cls-3" d="M81.33,52.83a.26.26,0,0,1-.25.21c-12.91.13-24.75,3.27-34,11.51,8-5.55,22.94-7.51,31.53-3.62a.26.26,0,0,1-.12.49c-10.68-.29-19.27,3-26,9,6.87.43,12.57,4.74,12.56,9.85a.26.26,0,0,1-.49.1c-1.12-2.49-4.75-3.78-8.58-2.88-4.18,1-7,4.19-6.3,7.17.47,2,2.44,3.4,5,3.79a.24.24,0,0,1,.22.25.26.26,0,0,1-.23.25,18.4,18.4,0,0,1-3.32,0c-6.49-.62-11.51-4.6-12-9.18-4.71.54-8.88,3.16-10.38,6.77a.26.26,0,0,1-.27.16.27.27,0,0,1-.22-.24c-.37-4.75,1.26-7.83,5-10.85A21.76,21.76,0,0,1,16.25,75a.25.25,0,0,1,.1-.48,16.28,16.28,0,0,0,11.73-5.07C9.82,74.61-5,63.28.12,46.43a.26.26,0,0,1,.27-.18.25.25,0,0,1,.23.23c.92,9.71,7.7,16.11,17.86,17.07A17.45,17.45,0,0,1,6.92,48a.29.29,0,0,1,.19-.27.28.28,0,0,1,.3.15,16.75,16.75,0,0,0,14.16,9.81c-6.34-2.58-10.4-8.6-11.57-16.42a.25.25,0,0,1,.17-.28.24.24,0,0,1,.3.13C14.34,48.72,22.63,53.93,32.92,50c10.62-4.11,15.27-16.39,16.3-25a.27.27,0,0,1,.24-.23.26.26,0,0,1,.26.2c3.72,15.69-3.58,32-16.63,38.84,7.09-2,13.44-6.26,17-13.36,8.3-1,14-3.86,16.86-9.24a.27.27,0,0,1,.3-.12.26.26,0,0,1,.18.26c-.18,2.11-.94,6.33-4.08,8.28a45.77,45.77,0,0,1,17.8,3A.26.26,0,0,1,81.33,52.83ZM51.84-.64a.26.26,0,0,0,.32,0,.27.27,0,0,0,0-.32c-1.62-2.79-.14-6.81,3-6.81C61-7.79,63.72,3,62.85,12.8c-2.16-5.75-4-8-7.35-10.79a.24.24,0,0,0-.32,0,.23.23,0,0,0-.06.31A46.61,46.61,0,0,1,61,26.41c-1.46-6-3.19-9.32-8.12-14.38a.25.25,0,0,0-.33,0,.25.25,0,0,0-.09.31,44.22,44.22,0,0,1,1,34.26.26.26,0,0,0,.35.33C59,44.35,62,42.67,66.52,36.51c-1.36-7.4-.23-11,3.17-17.2-3.94,9.92-1.84,23.9,8.19,29.59a.24.24,0,0,0,.32-.06.25.25,0,0,0,0-.33A17.93,17.93,0,0,1,74,30.58C72.5,41,81.63,49.69,91.81,49.69c9.6,0,16.15-7.5,15.61-14.94s-5.44-11-9.67-12.49a.25.25,0,0,0-.3.1.26.26,0,0,0,0,.31c5.61,5.7,6.38,16.5-3.58,19.76,5.86-5,3.69-16.83-5.69-17.72a.24.24,0,0,0-.26.17.24.24,0,0,0,.1.29,8.05,8.05,0,0,1,3.68,6.58c0,4.67-3.42,6.51-5.68,6.51-3.42,0-6.26-3.26-6.26-8.18,0-5.84,5.26-10.68,12-11.43s12.78,2.15,15.75,6.45a.25.25,0,0,0,.46-.2,17.14,17.14,0,0,0-26.89-9.51c6.61-7.5,17-7.61,25.72.09a.26.26,0,0,0,.32,0,.27.27,0,0,0,.08-.32C104.58,9.77,98,3.35,88.64,4.29c-8.56.85-13.52,9-14.52,15.69-.56-8.52,1.39-14.54,8.75-20.14a.25.25,0,0,0,.07-.32.24.24,0,0,0-.29-.13c-6.79,2-12.23,5.42-15.05,12.54,0-6.16,2.14-12.37,7.52-16.51a.24.24,0,0,0,.07-.31A.23.23,0,0,0,74.9-5C71.45-4,68.73-2.53,66.76.16c-1.31-11.1-6.52-17.69-12.52-17.69-4.13,0-7.21,3-7.21,7.87A11.38,11.38,0,0,0,51.84-.64ZM-47.39,91c3.17,3.9,9.54,5.39,16.44,4a22.65,22.65,0,0,0,1.61,11.48.25.25,0,0,0,.29.14.25.25,0,0,0,.19-.26c-.37-8.76,4.62-15.84,13.45-18.91-6.91,4.76-8.92,14.2-5.64,19.07a.25.25,0,0,0,.31.09.25.25,0,0,0,.15-.28c-.37-2.06.61-4.68,2.72-6.72,2.9-2.82,6.85-3.46,8.81-1.43s1.19,5.94-1.71,8.76a9.72,9.72,0,0,1-3.45,2.18.27.27,0,0,0-.17.27.25.25,0,0,0,.23.22c6.39.56,10.77-3.25,13.52-7.87S6.93,93.3,12.57,94a.26.26,0,0,0,.27-.17.24.24,0,0,0-.11-.3,11,11,0,0,0-9.86-1.06c5.8-4.9,14.05-7.74,21.84-5.22a.26.26,0,0,0,.27-.41C19.07,80.31,7.29,80.18-.13,85.5,2.9,81.19,6.93,78,14.16,77a.28.28,0,0,0,.22-.23.26.26,0,0,0-.17-.26c-8.29-3.08-16.6,0-23.44,8.21a26.31,26.31,0,0,1,14.77-14,.26.26,0,0,0,.16-.28.25.25,0,0,0-.25-.21c-3.94-.08-7.48.86-12.26,3.57,3.51-5.69,2.74-15.64-2.37-22.26a.27.27,0,0,0-.3-.08.26.26,0,0,0-.15.28c1.18,7.2-1.3,15.32-5.61,19.64a18.2,18.2,0,0,0-5.9-19.65.25.25,0,0,0-.25,0,.27.27,0,0,0-.17.2c-1.23,9.42-11.77,19-20.6,19.78a.26.26,0,0,0-.23.23.26.26,0,0,0,.2.27,20.83,20.83,0,0,0,12.39-1,21.76,21.76,0,0,1-9.56,6.24.25.25,0,0,0-.17.27.25.25,0,0,0,.23.23,20.43,20.43,0,0,0,12.73-3.54A31.44,31.44,0,0,1-46,87.87a.25.25,0,0,0-.19.26.27.27,0,0,0,.22.24c11.92,1.3,21.75-3.32,28.22-11.92-1.64,4.9-6.36,9.75-12.94,12.62-5.85,2.54-11.85,2.94-16.42,1.51a.24.24,0,0,0-.29.1A.26.26,0,0,0-47.39,91ZM5.52,15.41C.71,25.89,1.05,34.09,4.92,44.46a.26.26,0,0,0,.5-.1C4.8,31.74,8.24,22.71,15.72,16.55c-8.25,9.86-4.36,29.56,8.82,29.56,9.58,0,17.51-8,19.45-17.52a.26.26,0,0,0-.15-.29.25.25,0,0,0-.31.11c-2.85,4.76-7.41,7.85-12.46,7.85-8.14,0-10.54-6.47-10.54-11,0-6.18,4.92-11.34,8.71-11.34a4.94,4.94,0,0,1,5,4.92A8.88,8.88,0,0,1,27.9,27a.25.25,0,0,0-.18.28.26.26,0,0,0,.25.22,10.48,10.48,0,0,0,9.63-5.57A17.42,17.42,0,0,1,37,29.66a.25.25,0,0,0,.13.3.24.24,0,0,0,.31-.07c7.36-9.39,3.84-25.62-2-32.36,5.53,4,10.42,12.64,10.34,24.4a.26.26,0,0,0,.21.25.25.25,0,0,0,.28-.16C50.36,11.77,48.18-7.22,37-17.83a20.18,20.18,0,0,1,9.12.69.25.25,0,0,0,.3-.11.26.26,0,0,0,0-.32c-4.1-3.46-9.82-4.54-15.27-4.54,4.7,5.5,3.14,16.55-4.35,16.55-5.35,0-7.78-8.3-3.65-12.78a.24.24,0,0,0,0-.31.24.24,0,0,0-.29-.1c-4.78,1.65-10,5.79-10,11,0,5.05,4.81,9.4,11.8,9.06-8.82,2.5-18-.27-22.88-6.26A.24.24,0,0,0,1.46-5a.24.24,0,0,0-.13.29C4.12,6,13.29,10.49,24.77,9c-9.28,3.76-23.25.48-29.43-7.31A.25.25,0,0,0-5,1.61a.24.24,0,0,0-.14.28C-3.73,8.51-.24,13.45,5.52,15.41Z"/></pattern></defs><title>未标题-1</title><text class="cls-4" transform="translate(28.98 59.09)">JDIT</text><text x="-290.74" y="-219.91"></text></svg>